# xmcd
#
# Track frame offsets:
#	150
#	11022
#	20480
#	32200
#	44235
#	54737
#	65205
#	74327
#	85960
#	97362
#	107632
#	122562
#	134085
#	144602
#	156882
#	167925
#	179315
#	189355
#	203635
#	214927
#
# Disc length: 3023
#
# Revision: 2
# Processed by: cddbd v1.5.1PL0 Copyright (c) Steve Scherf et al.
# Submitted via: EasyCDDAExtractor 6.5.0.1
# Normalized: r1:DSETVAR1
#
DISCID=3c0bcd14
DTITLE=Various Artist - The Collection - Disc 01
DYEAR=1953
DGENRE=Country and Western
TTITLE0=Slim Whitman - Rose Marie
TTITLE1=My Blue Heaven
TTITLE2=Bouquet Of Roses
TTITLE3=Lorena
TTITLE4=How Could I Not Love You
TTITLE5=Take Me In You're Arms And Hold Me
TTITLE6=When My Dreamboat Comes Home
TTITLE7=I'd Trade All Of My Tomorrows
TTITLE8=White Silver Sand
TTITLE9=Nobody's Darlin' But Mine
TTITLE10=Indian Love Call
TTITLE11=I'm Walking Behind You
TTITLE12=I'd Climb The Highest Mountain
TTITLE13=Tell Me
TTITLE14=Ride Away (With A Song In My Heart)
TTITLE15=Little Green Valley
TTITLE16=Born To Loose
TTITLE17=At Mail Call Today
TTITLE18=In The Valley Of The Moon
TTITLE19=Blue Eyes Crying In The Rain
EXTD=
EXTT0=
EXTT1=
EXTT2=
EXTT3=
EXTT4=
EXTT5=
EXTT6=
EXTT7=
EXTT8=
EXTT9=
EXTT10=
EXTT11=
EXTT12=
EXTT13=
EXTT14=
EXTT15=
EXTT16=
EXTT17=
EXTT18=
EXTT19=
PLAYORDER=
